<svg width="144" height="144" viewBox="0 0 144 144" fill="none" xmlns="http://www.w3.org/2000/svg">
<g clip-path="url(#clip0_295_8148)">
<path d="M144 72C144 97.1407 131.117 119.267 111.594 132.145C100.237 139.641 86.63 144 72 144C71.1581 144 70.3206 143.986 69.4832 143.955C55.2063 143.466 41.9842 138.822 30.9891 131.185C12.2625 118.185 0 96.5251 0 72C0 32.2384 32.2384 0 72 0C111.762 0 144 32.2384 144 72Z" fill="#BF9D7D"/>
<path d="M57.4398 56.1071C55.7152 53.7533 24.9525 59.063 23.1871 53.5451C21.8925 49.5074 21.2316 33.9766 22.2456 31.5911C19.1811 38.802 16.8318 46.4429 15.0121 54.1788C14.745 55.324 14.4825 56.5779 14.2878 57.8725C13.8895 60.5251 13.7718 63.3361 14.4825 65.7171C15.6186 69.533 18.4975 70.0943 21.8744 70.5153C31.8103 71.7646 41.6782 73.6477 51.424 76.1554C51.3018 74.4036 51.3425 72.6428 51.5326 70.9C52.1256 65.4455 54.1897 60.1901 57.4398 56.1026V56.1071Z" fill="#29609B"/>
<path d="M128.39 57.4334C128.195 56.1388 127.937 54.8849 127.67 53.7397C125.859 45.9992 123.519 38.3583 120.464 31.143C121.473 33.5285 120.799 49.0592 119.499 53.0969C117.725 58.6103 86.9713 53.2689 85.2422 55.6228C88.4878 59.7148 90.5474 64.9747 91.1358 70.4293C91.3214 72.172 91.3621 73.9328 91.2399 75.6846C100.99 73.186 110.863 71.312 120.799 70.0762C124.175 69.6552 127.054 69.0984 128.195 65.2825C128.906 62.9015 128.793 60.086 128.399 57.4379L128.39 57.4334Z" fill="#5494CD"/>
<path d="M114.56 89.0879C116.706 98.7703 117.448 108.901 116.756 118.963C115.461 118.221 114.166 117.483 112.867 116.741C112.795 121.888 112.369 127.043 111.595 132.145C100.238 139.641 86.6311 144 72.0012 144C71.1592 144 70.3218 143.986 69.4844 143.955V47.9955C69.4844 47.9955 75.129 40.6217 87.0113 41.5903C85.2414 42.4323 81.5659 44.8269 80.5655 47.5383C85.9793 46.0581 91.1351 47.2622 94.8967 49.9193C92.914 50.3403 91.3524 51.8114 91.2347 52.771C94.1453 53.3731 97.0015 54.2648 99.7628 55.4191C104.081 57.2207 108.173 59.6786 111.889 62.7114C109.88 62.7884 107.87 62.8653 105.86 62.9423C108.866 64.9566 111.423 67.7812 113.288 71.1309C113.492 71.4885 113.682 71.8552 113.868 72.2263C112.836 71.7329 111.645 71.6515 110.545 72C115.375 77.4455 118.725 84.5568 120.074 92.2112C118.236 91.1701 116.398 90.129 114.56 89.0879Z" fill="#08BED0"/>
<path d="M69.4794 47.9955V143.955C55.2025 143.466 41.9803 138.822 30.9852 131.185C29.3149 124.957 28.3689 118.452 28.1878 111.888C28.1742 111.395 27.6039 111.237 27.3775 111.667C27.0697 112.255 26.6985 112.807 26.273 113.296C25.9879 113.627 25.499 113.427 25.5035 112.975C25.5624 105.696 26.7574 98.39 29.0116 91.487C29.1655 91.0162 28.7038 90.6224 28.3462 90.9212C26.2821 92.6051 24.3673 94.5289 22.6382 96.6473C22.3213 97.0366 21.7736 96.7062 21.8913 96.1992C23.6567 88.3953 26.7257 80.9219 30.8902 74.3086C31.1527 73.8921 30.7725 73.367 30.3606 73.5753L26.694 75.4538C26.264 75.6756 25.8838 75.1052 26.178 74.6888C26.9475 73.5888 27.7442 72.5115 28.5725 71.4613C32.6691 66.2422 37.4401 61.6929 42.6729 58.0219C41.9848 58.5424 37.0509 56.8993 35.6205 56.1479C35.4756 56.0709 35.367 56.003 35.3036 55.9487C40.2195 53.7035 47.5526 50.9604 52.7898 50.7839C51.5269 47.0766 48.2859 44.1388 42.1659 43.4463C57.4341 39.5398 66.2202 46.5605 69.4794 47.9955Z" fill="#0691AE"/>
<path d="M71.0521 117.538C86.7994 117.538 99.5651 104.249 99.5651 87.8567C99.5651 71.4644 86.7994 58.1758 71.0521 58.1758C55.3048 58.1758 42.5391 71.4644 42.5391 87.8567C42.5391 104.249 55.3048 117.538 71.0521 117.538Z" fill="white"/>
<path d="M69.4892 58.221C54.479 59.0675 42.5559 72.0045 42.5469 87.8431C42.5378 103.695 54.4654 116.646 69.4892 117.492V58.221Z" fill="#E0E0E0"/>
<path d="M69.8853 70.7009C65.9563 70.986 62.1268 72.7152 59.2659 75.8567C53.3225 82.3659 53.7842 92.4647 60.298 98.4036C62.9325 100.807 66.1509 102.161 69.4417 102.496C72.4745 91.7043 73.054 80.6141 69.8853 70.7009Z" fill="#02A486"/>
<path d="M82.8486 97.3716C88.792 90.8623 88.3303 80.7635 81.8165 74.8246C78.4442 71.7465 74.1122 70.3931 69.8889 70.7009C73.053 80.6096 72.4781 91.7043 69.4453 102.496C74.2978 102.985 79.3088 101.255 82.8486 97.3761V97.3716Z" fill="#04BF8A"/>
<path d="M70.094 96.077C72.9865 96.3667 75.974 95.3391 78.0834 93.026C81.6232 89.1467 81.3516 83.1309 77.4678 79.5866C75.458 77.7533 72.8733 76.9431 70.361 77.1286C68.0208 77.3007 65.7394 78.3282 64.0329 80.2022C60.4931 84.0815 60.7647 90.0973 64.6485 93.6417C66.2192 95.0721 68.1385 95.8823 70.0985 96.077H70.094Z" fill="#263238"/>
</g>
<defs>
<clipPath id="clip0_295_8148">
<rect width="144" height="144" fill="white"/>
</clipPath>
</defs>
</svg>
